<svg width="293" height="62" viewBox="0 0 293 62" fill="none" xmlns="http://www.w3.org/2000/svg">
<path d="M24.564 36V19.9H28.06L33.189 30.112L38.249 19.9H41.745V36H38.801V24.891L34.316 33.7H31.993L27.508 24.891V36H24.564ZM50.3427 36.276C49.1927 36.276 48.173 36.0307 47.2837 35.54C46.3944 35.0493 45.6967 34.3593 45.1907 33.47C44.6847 32.5807 44.4317 31.5533 44.4317 30.388C44.4317 29.2073 44.677 28.157 45.1677 27.237C45.6737 26.317 46.3637 25.604 47.2377 25.098C48.127 24.5767 49.1697 24.316 50.3657 24.316C51.485 24.316 52.474 24.5613 53.3327 25.052C54.1914 25.5427 54.8584 26.2173 55.3337 27.076C55.8244 27.9193 56.0697 28.8623 56.0697 29.905C56.0697 30.0737 56.062 30.25 56.0467 30.434C56.0467 30.618 56.039 30.8097 56.0237 31.009H47.3527C47.414 31.8983 47.7207 32.596 48.2727 33.102C48.84 33.608 49.5224 33.861 50.3197 33.861C50.9177 33.861 51.416 33.7307 51.8147 33.47C52.2287 33.194 52.5354 32.8413 52.7347 32.412H55.7247C55.51 33.1327 55.1497 33.792 54.6437 34.39C54.153 34.9727 53.5397 35.4327 52.8037 35.77C52.083 36.1073 51.2627 36.276 50.3427 36.276ZM50.3657 26.708C49.645 26.708 49.0087 26.915 48.4567 27.329C47.9047 27.7277 47.552 28.341 47.3987 29.169H53.0797C53.0337 28.4177 52.7577 27.8197 52.2517 27.375C51.7457 26.9303 51.117 26.708 50.3657 26.708ZM58.5458 36V24.592H61.1448L61.3748 26.524C61.7274 25.8493 62.2334 25.3127 62.8928 24.914C63.5674 24.5153 64.3571 24.316 65.2618 24.316C66.6724 24.316 67.7688 24.7607 68.5508 25.65C69.3328 26.5393 69.7238 27.8427 69.7238 29.56V36H66.7798V29.836C66.7798 28.8547 66.5804 28.1033 66.1818 27.582C65.7831 27.0607 65.1621 26.8 64.3188 26.8C63.4908 26.8 62.8084 27.0913 62.2718 27.674C61.7504 28.2567 61.4898 29.0693 61.4898 30.112V36H58.5458ZM77.6219 36C76.4259 36 75.4676 35.7087 74.7469 35.126C74.0263 34.5433 73.6659 33.5083 73.6659 32.021V27.053H71.7109V24.592H73.6659L74.0109 21.533H76.6099V24.592H79.6919V27.053H76.6099V32.044C76.6099 32.596 76.7249 32.9793 76.9549 33.194C77.2003 33.3933 77.6143 33.493 78.1969 33.493H79.6229V36H77.6219ZM87.4016 36.276C86.2976 36.276 85.301 36.023 84.4116 35.517C83.5376 35.011 82.84 34.3133 82.3186 33.424C81.8126 32.5193 81.5596 31.4767 81.5596 30.296C81.5596 29.1153 81.8203 28.0803 82.3416 27.191C82.863 26.2863 83.5606 25.581 84.4346 25.075C85.324 24.569 86.3206 24.316 87.4246 24.316C88.5133 24.316 89.4946 24.569 90.3686 25.075C91.258 25.581 91.9556 26.2863 92.4616 27.191C92.983 28.0803 93.2436 29.1153 93.2436 30.296C93.2436 31.4767 92.983 32.5193 92.4616 33.424C91.9556 34.3133 91.258 35.011 90.3686 35.517C89.4793 36.023 88.4903 36.276 87.4016 36.276ZM87.4016 33.723C88.1683 33.723 88.8353 33.4393 89.4026 32.872C89.97 32.2893 90.2536 31.4307 90.2536 30.296C90.2536 29.1613 89.97 28.3103 89.4026 27.743C88.8353 27.1603 88.176 26.869 87.4246 26.869C86.6426 26.869 85.968 27.1603 85.4006 27.743C84.8486 28.3103 84.5726 29.1613 84.5726 30.296C84.5726 31.4307 84.8486 32.2893 85.4006 32.872C85.968 33.4393 86.635 33.723 87.4016 33.723ZM95.8759 36V24.592H98.4979L98.7739 26.731C99.1879 25.995 99.7475 25.4123 100.453 24.983C101.174 24.5383 102.017 24.316 102.983 24.316V27.421H102.155C101.511 27.421 100.936 27.5207 100.43 27.72C99.9239 27.9193 99.5252 28.2643 99.2339 28.755C98.9579 29.2457 98.8199 29.928 98.8199 30.802V36H95.8759ZM109.71 36.276C108.698 36.276 107.809 36.115 107.042 35.793C106.275 35.4557 105.662 34.9957 105.202 34.413C104.742 33.8303 104.466 33.1557 104.374 32.389H107.341C107.433 32.8337 107.678 33.217 108.077 33.539C108.491 33.8457 109.02 33.999 109.664 33.999C110.308 33.999 110.776 33.8687 111.067 33.608C111.374 33.3473 111.527 33.0483 111.527 32.711C111.527 32.2203 111.312 31.8907 110.883 31.722C110.454 31.538 109.856 31.3617 109.089 31.193C108.598 31.0857 108.1 30.9553 107.594 30.802C107.088 30.6487 106.62 30.457 106.191 30.227C105.777 29.9817 105.44 29.675 105.179 29.307C104.918 28.9237 104.788 28.456 104.788 27.904C104.788 26.892 105.187 26.041 105.984 25.351C106.797 24.661 107.931 24.316 109.388 24.316C110.737 24.316 111.811 24.6303 112.608 25.259C113.421 25.8877 113.904 26.754 114.057 27.858H111.274C111.105 27.0147 110.469 26.593 109.365 26.593C108.813 26.593 108.384 26.7003 108.077 26.915C107.786 27.1297 107.64 27.398 107.64 27.72C107.64 28.0573 107.862 28.3257 108.307 28.525C108.752 28.7243 109.342 28.9083 110.078 29.077C110.875 29.261 111.604 29.468 112.263 29.698C112.938 29.9127 113.474 30.2423 113.873 30.687C114.272 31.1163 114.471 31.7373 114.471 32.55C114.486 33.2553 114.302 33.8917 113.919 34.459C113.536 35.0263 112.984 35.471 112.263 35.793C111.542 36.115 110.691 36.276 109.71 36.276ZM117.079 36V19.44H120.023V26.34C120.406 25.7113 120.92 25.2207 121.564 24.868C122.223 24.5 122.975 24.316 123.818 24.316C125.229 24.316 126.317 24.7607 127.084 25.65C127.866 26.5393 128.257 27.8427 128.257 29.56V36H125.336V29.836C125.336 28.8547 125.137 28.1033 124.738 27.582C124.355 27.0607 123.741 26.8 122.898 26.8C122.07 26.8 121.38 27.0913 120.828 27.674C120.291 28.2567 120.023 29.0693 120.023 30.112V36H117.079ZM132.659 22.821C132.122 22.821 131.678 22.66 131.325 22.338C130.988 22.016 130.819 21.6097 130.819 21.119C130.819 20.6283 130.988 20.2297 131.325 19.923C131.678 19.601 132.122 19.44 132.659 19.44C133.196 19.44 133.633 19.601 133.97 19.923C134.323 20.2297 134.499 20.6283 134.499 21.119C134.499 21.6097 134.323 22.016 133.97 22.338C133.633 22.66 133.196 22.821 132.659 22.821ZM131.187 36V24.592H134.131V36H131.187ZM137.204 41.06V24.592H139.826L140.148 26.225C140.516 25.719 140.999 25.2743 141.597 24.891C142.21 24.5077 143 24.316 143.966 24.316C145.039 24.316 145.998 24.5767 146.841 25.098C147.684 25.6193 148.351 26.3323 148.842 27.237C149.333 28.1417 149.578 29.169 149.578 30.319C149.578 31.469 149.333 32.4963 148.842 33.401C148.351 34.2903 147.684 34.9957 146.841 35.517C145.998 36.023 145.039 36.276 143.966 36.276C143.107 36.276 142.356 36.115 141.712 35.793C141.068 35.471 140.547 35.0187 140.148 34.436V41.06H137.204ZM143.345 33.7C144.28 33.7 145.055 33.3857 145.668 32.757C146.281 32.1283 146.588 31.3157 146.588 30.319C146.588 29.3223 146.281 28.502 145.668 27.858C145.055 27.214 144.28 26.892 143.345 26.892C142.394 26.892 141.612 27.214 140.999 27.858C140.401 28.4867 140.102 29.2993 140.102 30.296C140.102 31.2927 140.401 32.113 140.999 32.757C141.612 33.3857 142.394 33.7 143.345 33.7ZM157.688 36V24.592H160.287L160.54 26.133C160.908 25.581 161.391 25.144 161.989 24.822C162.603 24.4847 163.308 24.316 164.105 24.316C165.869 24.316 167.118 24.9983 167.854 26.363C168.268 25.7343 168.82 25.236 169.51 24.868C170.216 24.5 170.982 24.316 171.81 24.316C173.298 24.316 174.44 24.7607 175.237 25.65C176.035 26.5393 176.433 27.8427 176.433 29.56V36H173.489V29.836C173.489 28.8547 173.298 28.1033 172.914 27.582C172.546 27.0607 171.971 26.8 171.189 26.8C170.392 26.8 169.748 27.0913 169.257 27.674C168.782 28.2567 168.544 29.0693 168.544 30.112V36H165.6V29.836C165.6 28.8547 165.409 28.1033 165.025 27.582C164.642 27.0607 164.052 26.8 163.254 26.8C162.472 26.8 161.836 27.0913 161.345 27.674C160.87 28.2567 160.632 29.0693 160.632 30.112V36H157.688ZM183.161 36.276C182.18 36.276 181.375 36.1227 180.746 35.816C180.118 35.494 179.65 35.0723 179.343 34.551C179.037 34.0297 178.883 33.4547 178.883 32.826C178.883 31.768 179.297 30.9093 180.125 30.25C180.953 29.5907 182.195 29.261 183.851 29.261H186.749V28.985C186.749 28.203 186.527 27.628 186.082 27.26C185.638 26.892 185.086 26.708 184.426 26.708C183.828 26.708 183.307 26.8537 182.862 27.145C182.418 27.421 182.142 27.835 182.034 28.387H179.159C179.236 27.559 179.512 26.8383 179.987 26.225C180.478 25.6117 181.107 25.144 181.873 24.822C182.64 24.4847 183.499 24.316 184.449 24.316C186.075 24.316 187.355 24.7223 188.29 25.535C189.226 26.3477 189.693 27.4977 189.693 28.985V36H187.186L186.91 34.16C186.573 34.7733 186.098 35.2793 185.484 35.678C184.886 36.0767 184.112 36.276 183.161 36.276ZM183.828 33.976C184.672 33.976 185.323 33.7 185.783 33.148C186.259 32.596 186.558 31.9137 186.68 31.101H184.173C183.391 31.101 182.832 31.2467 182.494 31.538C182.157 31.814 181.988 32.159 181.988 32.573C181.988 33.0177 182.157 33.3627 182.494 33.608C182.832 33.8533 183.276 33.976 183.828 33.976ZM197.747 36.276C196.673 36.276 195.715 36.0153 194.872 35.494C194.028 34.9727 193.361 34.2597 192.871 33.355C192.38 32.4503 192.135 31.423 192.135 30.273C192.135 29.123 192.38 28.1033 192.871 27.214C193.361 26.3093 194.028 25.604 194.872 25.098C195.715 24.5767 196.673 24.316 197.747 24.316C198.605 24.316 199.357 24.477 200.001 24.799C200.645 25.121 201.166 25.5733 201.565 26.156V19.44H204.509V36H201.887L201.565 34.367C201.197 34.873 200.706 35.3177 200.093 35.701C199.495 36.0843 198.713 36.276 197.747 36.276ZM198.368 33.7C199.318 33.7 200.093 33.3857 200.691 32.757C201.304 32.113 201.611 31.2927 201.611 30.296C201.611 29.2993 201.304 28.4867 200.691 27.858C200.093 27.214 199.318 26.892 198.368 26.892C197.432 26.892 196.658 27.2063 196.045 27.835C195.431 28.4637 195.125 29.2763 195.125 30.273C195.125 31.2697 195.431 32.09 196.045 32.734C196.658 33.378 197.432 33.7 198.368 33.7ZM213.05 36.276C211.9 36.276 210.88 36.0307 209.991 35.54C209.101 35.0493 208.404 34.3593 207.898 33.47C207.392 32.5807 207.139 31.5533 207.139 30.388C207.139 29.2073 207.384 28.157 207.875 27.237C208.381 26.317 209.071 25.604 209.945 25.098C210.834 24.5767 211.877 24.316 213.073 24.316C214.192 24.316 215.181 24.5613 216.04 25.052C216.898 25.5427 217.565 26.2173 218.041 27.076C218.531 27.9193 218.777 28.8623 218.777 29.905C218.777 30.0737 218.769 30.25 218.754 30.434C218.754 30.618 218.746 30.8097 218.731 31.009H210.06C210.121 31.8983 210.428 32.596 210.98 33.102C211.547 33.608 212.229 33.861 213.027 33.861C213.625 33.861 214.123 33.7307 214.522 33.47C214.936 33.194 215.242 32.8413 215.442 32.412H218.432C218.217 33.1327 217.857 33.792 217.351 34.39C216.86 34.9727 216.247 35.4327 215.511 35.77C214.79 36.1073 213.97 36.276 213.05 36.276ZM213.073 26.708C212.352 26.708 211.716 26.915 211.164 27.329C210.612 27.7277 210.259 28.341 210.106 29.169H215.787C215.741 28.4177 215.465 27.8197 214.959 27.375C214.453 26.9303 213.824 26.708 213.073 26.708ZM232.276 36.276C231.126 36.276 230.107 36.0307 229.217 35.54C228.328 35.0493 227.63 34.3593 227.124 33.47C226.618 32.5807 226.365 31.5533 226.365 30.388C226.365 29.2073 226.611 28.157 227.101 27.237C227.607 26.317 228.297 25.604 229.171 25.098C230.061 24.5767 231.103 24.316 232.299 24.316C233.419 24.316 234.408 24.5613 235.266 25.052C236.125 25.5427 236.792 26.2173 237.267 27.076C237.758 27.9193 238.003 28.8623 238.003 29.905C238.003 30.0737 237.996 30.25 237.98 30.434C237.98 30.618 237.973 30.8097 237.957 31.009H229.286C229.348 31.8983 229.654 32.596 230.206 33.102C230.774 33.608 231.456 33.861 232.253 33.861C232.851 33.861 233.35 33.7307 233.748 33.47C234.162 33.194 234.469 32.8413 234.668 32.412H237.658C237.444 33.1327 237.083 33.792 236.577 34.39C236.087 34.9727 235.473 35.4327 234.737 35.77C234.017 36.1073 233.196 36.276 232.276 36.276ZM232.299 26.708C231.579 26.708 230.942 26.915 230.39 27.329C229.838 27.7277 229.486 28.341 229.332 29.169H235.013C234.967 28.4177 234.691 27.8197 234.185 27.375C233.679 26.9303 233.051 26.708 232.299 26.708ZM244.412 36.276C243.431 36.276 242.626 36.1227 241.997 35.816C241.369 35.494 240.901 35.0723 240.594 34.551C240.288 34.0297 240.134 33.4547 240.134 32.826C240.134 31.768 240.548 30.9093 241.376 30.25C242.204 29.5907 243.446 29.261 245.102 29.261H248V28.985C248 28.203 247.778 27.628 247.333 27.26C246.889 26.892 246.337 26.708 245.677 26.708C245.079 26.708 244.558 26.8537 244.113 27.145C243.669 27.421 243.393 27.835 243.285 28.387H240.41C240.487 27.559 240.763 26.8383 241.238 26.225C241.729 25.6117 242.358 25.144 243.124 24.822C243.891 24.4847 244.75 24.316 245.7 24.316C247.326 24.316 248.606 24.7223 249.541 25.535C250.477 26.3477 250.944 27.4977 250.944 28.985V36H248.437L248.161 34.16C247.824 34.7733 247.349 35.2793 246.735 35.678C246.137 36.0767 245.363 36.276 244.412 36.276ZM245.079 33.976C245.923 33.976 246.574 33.7 247.034 33.148C247.51 32.596 247.809 31.9137 247.931 31.101H245.424C244.642 31.101 244.083 31.2467 243.745 31.538C243.408 31.814 243.239 32.159 243.239 32.573C243.239 33.0177 243.408 33.3627 243.745 33.608C244.083 33.8533 244.527 33.976 245.079 33.976ZM258.469 36.276C257.457 36.276 256.567 36.115 255.801 35.793C255.034 35.4557 254.421 34.9957 253.961 34.413C253.501 33.8303 253.225 33.1557 253.133 32.389H256.1C256.192 32.8337 256.437 33.217 256.836 33.539C257.25 33.8457 257.779 33.999 258.423 33.999C259.067 33.999 259.534 33.8687 259.826 33.608C260.132 33.3473 260.286 33.0483 260.286 32.711C260.286 32.2203 260.071 31.8907 259.642 31.722C259.212 31.538 258.614 31.3617 257.848 31.193C257.357 31.0857 256.859 30.9553 256.353 30.802C255.847 30.6487 255.379 30.457 254.95 30.227C254.536 29.9817 254.198 29.675 253.938 29.307C253.677 28.9237 253.547 28.456 253.547 27.904C253.547 26.892 253.945 26.041 254.743 25.351C255.555 24.661 256.69 24.316 258.147 24.316C259.496 24.316 260.569 24.6303 261.367 25.259C262.179 25.8877 262.662 26.754 262.816 27.858H260.033C259.864 27.0147 259.228 26.593 258.124 26.593C257.572 26.593 257.142 26.7003 256.836 26.915C256.544 27.1297 256.399 27.398 256.399 27.72C256.399 28.0573 256.621 28.3257 257.066 28.525C257.51 28.7243 258.101 28.9083 258.837 29.077C259.634 29.261 260.362 29.468 261.022 29.698C261.696 29.9127 262.233 30.2423 262.632 30.687C263.03 31.1163 263.23 31.7373 263.23 32.55C263.245 33.2553 263.061 33.8917 262.678 34.459C262.294 35.0263 261.742 35.471 261.022 35.793C260.301 36.115 259.45 36.276 258.469 36.276ZM266.657 41.06L269.302 35.241H268.612L264.173 24.592H267.37L270.567 32.619L273.902 24.592H277.03L269.785 41.06H266.657Z" fill="#979797"/>
<rect x="6.5" y="1.5" width="285" height="53" stroke="#FB7267" stroke-opacity="0.5" stroke-width="3"/>
<rect x="1.5" y="7.5" width="285" height="53" stroke="#FB7267" stroke-opacity="0.5" stroke-width="3"/>
</svg>
